<?xml version="1.0" encoding="UTF-8" standalone="no"?>
<svg
   width="11.416833"
   height="6.7007012"
   version="1.1"
   viewBox="0 0 11.416833 6.7007012"
   xml:space="preserve"
   id="svg1"
   sodipodi:docname="orginal_100.svg"
   inkscape:version="1.4.3 (0d15f75, 2025-12-25)"
   xmlns:inkscape="http://www.inkscape.org/namespaces/inkscape"
   xmlns:sodipodi="http://sodipodi.sourceforge.net/DTD/sodipodi-0.dtd"
   xmlns="http://www.w3.org/2000/svg"
   xmlns:svg="http://www.w3.org/2000/svg"><defs
     id="defs1" /><sodipodi:namedview
     id="namedview1"
     pagecolor="#ffffff"
     bordercolor="#000000"
     borderopacity="0.25"
     inkscape:showpageshadow="2"
     inkscape:pageopacity="0.0"
     inkscape:pagecheckerboard="0"
     inkscape:deskcolor="#d1d1d1"
     inkscape:zoom="10.56"
     inkscape:cx="19.839015"
     inkscape:cy="31.155303"
     inkscape:window-width="2560"
     inkscape:window-height="1316"
     inkscape:window-x="-12"
     inkscape:window-y="-12"
     inkscape:window-maximized="1"
     inkscape:current-layer="svg1" /><path
     style="fill:#000000;fill-opacity:1;stroke-width:0.104866"
     d="M 0.170543,6.39954 0,6.099709 0.957039,5.54392 C 1.48341,5.238237 2.008457,4.928379 2.12381,4.855347 L 2.333542,4.722562 2.934899,5.711629 3.536256,6.700697 1.938671,6.700036 0.341087,6.699376 Z M 3.444097,5.229722 C 2.961393,4.420686 2.584832,3.744148 2.607296,3.726305 2.685646,3.664075 4.432644,2.636783 4.65717,2.520916 L 4.883476,2.40413 6.151511,4.503967 c 0.697419,1.154911 1.268035,2.121639 1.268035,2.148284 0,0.02665 -0.697006,0.04845 -1.548901,0.04845 H 4.321743 Z M 6.694051,4.072612 5.120108,1.444528 6.237496,0.722264 7.354883,0 7.479356,0.17815 c 0.0898,0.128525 3.45563,5.702291 3.891277,6.443897 l 0.0462,0.07865 h -1.57442 -1.57442 z"
     id="path1" /></svg>
